<?xml version="1.0" encoding="UTF-8"?>
<svg width="150px" height="150px" viewBox="0 0 150 150" version="1.1" xmlns="http://www.w3.org/2000/svg" xmlns:xlink="http://www.w3.org/1999/xlink">
    <!-- Generator: Sketch 59.1 (86144) - https://sketch.com -->
    <title>Group 61</title>
    <desc>Created with Sketch.</desc>
    <g id="Page-1" stroke="none" stroke-width="1" fill="none" fill-rule="evenodd">
        <g id="v4" transform="translate(-919.000000, -2433.000000)">
            <g id="Group-61" transform="translate(919.000000, 2433.000000)">
                <g id="QBox-Copy" fill="#0F1219">
                    <circle id="Oval-Copy-11" cx="75" cy="75" r="75"></circle>
                </g>
                <g id="cloud" transform="translate(34.000000, 34.000000)" fill-rule="nonzero">
                    <polygon id="Path" fill="#6CA1FF" points="67 75 77 75 77 77 67 77"></polygon>
                    <polygon id="Path" fill="#6CA1FF" points="67 69 77 69 77 71 67 71"></polygon>
                    <polygon id="Path" fill="#6CA1FF" points="37 75 47 75 47 77 37 77"></polygon>
                    <polygon id="Path" fill="#6CA1FF" points="37 69 47 69 47 71 37 71"></polygon>
                    <polygon id="Path" fill="#6CA1FF" points="6 75 16 75 16 77 6 77"></polygon>
                    <polygon id="Path" fill="#6CA1FF" points="6 69 16 69 16 71 6 71"></polygon>
                    <path d="M73.6290323,53.3020645 C75.1832742,52.7478387 76.3064516,51.2752581 76.3064516,49.5322581 C76.3064516,47.7892581 75.1832742,46.3166774 73.6290323,45.7624516 L73.6290323,38.728871 C78.9035484,38.0662097 83,33.5627903 83,28.1115645 C83,22.6375806 78.8700806,18.1180968 73.5647742,17.4848871 C73.6062742,17.0136613 73.6290323,16.5397581 73.6290323,16.0645161 C73.6290323,7.20627419 66.4227581,0 57.5645161,0 C50.1520806,0 43.8039194,5.0081129 42.0060323,12.0738226 C41.8373548,12.0644516 41.6713548,12.0483871 41.5,12.0483871 C40.2483065,12.0483871 39.0555161,12.3000645 37.9617903,12.7471935 C36.3084839,11.4272258 34.2709677,10.7096774 32.1290323,10.7096774 C31.2976935,10.7096774 30.4797419,10.8181129 29.6858871,11.0336452 C27.7407419,6.78591935 23.498371,4.01612903 18.7419355,4.01612903 C12.0992581,4.01612903 6.69354839,9.42183871 6.69354839,16.0645161 C6.69354839,16.549129 6.72701613,17.0324032 6.78458065,17.5103226 C2.94783871,18.1127419 0,21.4314032 0,25.4354839 C0,29.8652742 3.60246774,33.4677419 8.03225806,33.4677419 L18.7419355,33.4677419 L18.7419355,45.516129 C18.7419355,46.2537581 18.1408548,46.8548387 17.4032258,46.8548387 L14.4794839,46.8548387 C13.9252581,45.3005968 12.4526774,44.1774194 10.7096774,44.1774194 C8.49545161,44.1774194 6.69354839,45.9793226 6.69354839,48.1935484 C6.69354839,49.9365484 7.81672581,51.409129 9.37096774,51.9633548 L9.37096774,58.9032258 L0,58.9032258 L0,83 L21.4193548,83 L21.4193548,58.9032258 L12.0483871,58.9032258 L12.0483871,51.9633548 C13.1822742,51.5590645 14.0751935,50.6661452 14.4794839,49.5322581 L17.4032258,49.5322581 C19.6174516,49.5322581 21.4193548,47.7303548 21.4193548,45.516129 L21.4193548,33.4677419 L24.5653226,33.4677419 C25.5265161,36.1746129 27.8946935,38.212129 30.7903226,38.7020968 L30.7903226,45.516129 C30.7903226,47.7303548 32.5922258,49.5322581 34.8064516,49.5322581 L37.7301935,49.5322581 C38.1344839,50.6661452 39.0274032,51.5590645 40.1612903,51.9633548 L40.1612903,58.9032258 L30.7903226,58.9032258 L30.7903226,83 L52.2096774,83 L52.2096774,58.9032258 L42.8387097,58.9032258 L42.8387097,51.9633548 C44.3929516,51.409129 45.516129,49.9365484 45.516129,48.1935484 C45.516129,45.9793226 43.7142258,44.1774194 41.5,44.1774194 C39.757,44.1774194 38.2844194,45.3005968 37.7301935,46.8548387 L34.8064516,46.8548387 C34.0688226,46.8548387 33.4677419,46.2537581 33.4677419,45.516129 L33.4677419,38.8225806 L70.9516129,38.8225806 L70.9516129,45.7624516 C69.397371,46.3166774 68.2741935,47.7892581 68.2741935,49.5322581 C68.2741935,51.2752581 69.397371,52.7478387 70.9516129,53.3020645 L70.9516129,58.9032258 L61.5806452,58.9032258 L61.5806452,83 L83,83 L83,58.9032258 L73.6290323,58.9032258 L73.6290323,53.3020645 Z M2.67741935,80.3225806 L2.67741935,66.9354839 L18.7419355,66.9354839 L18.7419355,80.3225806 L2.67741935,80.3225806 Z M18.7419355,64.2580645 L2.67741935,64.2580645 L2.67741935,61.5806452 L18.7419355,61.5806452 L18.7419355,64.2580645 Z M10.7096774,49.5322581 C9.97204839,49.5322581 9.37096774,48.9311774 9.37096774,48.1935484 C9.37096774,47.4559194 9.97204839,46.8548387 10.7096774,46.8548387 C11.4473065,46.8548387 12.0483871,47.4559194 12.0483871,48.1935484 C12.0483871,48.9311774 11.4473065,49.5322581 10.7096774,49.5322581 Z M33.4677419,80.3225806 L33.4677419,66.9354839 L49.5322581,66.9354839 L49.5322581,80.3225806 L33.4677419,80.3225806 Z M49.5322581,64.2580645 L33.4677419,64.2580645 L33.4677419,61.5806452 L49.5322581,61.5806452 L49.5322581,64.2580645 Z M41.5,46.8548387 C42.237629,46.8548387 42.8387097,47.4559194 42.8387097,48.1935484 C42.8387097,48.9311774 42.237629,49.5322581 41.5,49.5322581 C40.762371,49.5322581 40.1612903,48.9311774 40.1612903,48.1935484 C40.1612903,47.4559194 40.762371,46.8548387 41.5,46.8548387 Z M24.0967742,30.7903226 L8.03225806,30.7903226 C5.07906452,30.7903226 2.67741935,28.3886774 2.67741935,25.4354839 C2.67741935,22.4822903 5.07906452,20.0806452 8.03225806,20.0806452 C10.9854516,20.0806452 13.3870968,22.4822903 13.3870968,25.4354839 L16.0645161,25.4354839 C16.0645161,21.5090484 13.2304677,18.2372419 9.50082258,17.5437903 C9.42317742,17.0565 9.37096774,16.5638548 9.37096774,16.0645161 C9.37096774,10.8970968 13.5745161,6.69354839 18.7419355,6.69354839 C22.7982258,6.69354839 26.3739194,9.28529032 27.6403387,13.1407742 L28.0995161,14.5397258 L29.4489355,13.9493548 C31.3927419,13.1006129 33.6337419,13.270629 35.4369839,14.2867097 C33.416871,16.0069516 32.1290323,18.5638871 32.1290323,21.4193548 C32.1290323,21.8664839 32.1611613,22.3136129 32.2280968,22.7580645 L32.1290323,22.7580645 C27.6992419,22.7580645 24.0967742,26.3605323 24.0967742,30.7903226 Z M26.7741935,30.7903226 C26.7741935,27.837129 29.1758387,25.4354839 32.1290323,25.4354839 L35.8278871,25.4354839 L35.1960161,23.6509839 C34.9376452,22.9187097 34.8064516,22.1690323 34.8064516,21.4193548 C34.8064516,17.7285323 37.8091774,14.7258065 41.5,14.7258065 C45.1908226,14.7258065 48.1935484,17.7285323 48.1935484,21.4193548 L50.8709677,21.4193548 C50.8709677,17.3510161 48.2604839,13.8891129 44.6299032,12.5972581 C46.1747742,6.78324194 51.4359032,2.67741935 57.5645161,2.67741935 C64.9461613,2.67741935 70.9516129,8.68287097 70.9516129,16.0645161 C70.9516129,16.5477903 70.9181452,17.0297258 70.8659355,17.5089839 C65.6329194,18.209129 61.5806452,22.691129 61.5806452,28.1129032 L64.2580645,28.1129032 C64.2580645,23.6831129 67.8605323,20.0806452 72.2903226,20.0806452 C76.7201129,20.0806452 80.3225806,23.6831129 80.3225806,28.1129032 C80.3225806,32.5426935 76.7201129,36.1451613 72.2903226,36.1451613 L32.1290323,36.1451613 C29.1758387,36.1451613 26.7741935,33.7435161 26.7741935,30.7903226 Z M72.2903226,48.1935484 C73.0279516,48.1935484 73.6290323,48.794629 73.6290323,49.5322581 C73.6290323,50.2698871 73.0279516,50.8709677 72.2903226,50.8709677 C71.5526935,50.8709677 70.9516129,50.2698871 70.9516129,49.5322581 C70.9516129,48.794629 71.5526935,48.1935484 72.2903226,48.1935484 Z M64.2580645,80.3225806 L64.2580645,66.9354839 L80.3225806,66.9354839 L80.3225806,80.3225806 L64.2580645,80.3225806 Z M80.3225806,64.2580645 L64.2580645,64.2580645 L64.2580645,61.5806452 L80.3225806,61.5806452 L80.3225806,64.2580645 Z" id="Shape" fill="#406099"></path>
                    <path d="M77,28 C77,25.2425 74.309,23 71,23 L71,25.5 C72.6545,25.5 74,26.62125 74,28 C74,29.37875 72.6545,30.5 71,30.5 L71,33 C74.309,33 77,30.7575 77,28 Z" id="Path" fill="#6CA1FF"></path>
                    <path d="M14.7623691,11.7551649 C13.6259781,12.8896019 13,14.3973827 13,16 L15.407608,16 C15.407608,15.0384296 15.7831949,14.1332809 16.464548,13.4526188 C17.8116047,12.1117022 19.9808595,12.0420754 21.4061635,13.2977591 L23,11.4982659 C20.6260985,9.40585995 17.0074636,9.51750296 14.7623691,11.7551649 L14.7623691,11.7551649 Z" id="Path" fill="#6CA1FF"></path>
                    <path d="M65.5006315,16 L68,15.6037525 C67.2952766,10.1276953 62.9949482,6 58,6 L58,8.80033604 C61.7471584,8.80033604 64.9714574,11.8947074 65.5006315,16 Z" id="Path" fill="#6CA1FF"></path>
                    <path d="M47,34 L47,31 L32.6153846,31 L32.6153846,28 L30,28 L30,31 C30,32.6545 31.173,34 32.6153846,34 L47,34 Z" id="Path" fill="#6CA1FF"></path>
                    <polygon id="Path" fill="#6CA1FF" points="50 31 52 31 52 33 50 33"></polygon>
                </g>
            </g>
        </g>
    </g>
</svg>