<?xml version="1.0" encoding="UTF-8"?>
<svg width="150px" height="150px" viewBox="0 0 150 150" version="1.1" xmlns="http://www.w3.org/2000/svg" xmlns:xlink="http://www.w3.org/1999/xlink">
    <!-- Generator: Sketch 59.1 (86144) - https://sketch.com -->
    <title>QStore</title>
    <desc>Created with Sketch.</desc>
    <g id="Page-1" stroke="none" stroke-width="1" fill="none" fill-rule="evenodd">
        <g id="v4" transform="translate(-205.000000, -2201.000000)">
            <g id="QStore" transform="translate(205.000000, 2201.000000)">
                <circle id="Oval-Copy-9" fill="#0F1219" cx="75" cy="75" r="75"></circle>
                <g id="database" transform="translate(36.614173, 36.614173)" fill-rule="nonzero">
                    <path d="M12.992126,8.26771654 C9.73622047,8.26771654 7.08661417,10.9173228 7.08661417,14.1732283 C7.08661417,17.4291339 9.73622047,20.0787402 12.992126,20.0787402 C16.2480315,20.0787402 18.8976378,17.4291339 18.8976378,14.1732283 C18.8976378,10.9173228 16.2480315,8.26771654 12.992126,8.26771654 Z M12.992126,17.4540682 C11.183727,17.4540682 9.71128609,15.9829396 9.71128609,14.1732283 C9.71128609,12.3635171 11.183727,10.8923885 12.992126,10.8923885 C14.8005249,10.8923885 16.2729659,12.3635171 16.2729659,14.1732283 C16.2729659,15.9829396 14.8005249,17.4540682 12.992126,17.4540682 Z" id="Shape" fill="#6CA1FF"></path>
                    <circle id="Oval" fill="#6CA1FF" cx="63.7795276" cy="11.8110236" r="1.18110236"></circle>
                    <circle id="Oval" fill="#6CA1FF" cx="59.0551181" cy="11.8110236" r="1.18110236"></circle>
                    <circle id="Oval" fill="#6CA1FF" cx="66.1417323" cy="15.3543307" r="1.18110236"></circle>
                    <circle id="Oval" fill="#6CA1FF" cx="61.4173228" cy="15.3543307" r="1.18110236"></circle>
                    <circle id="Oval" fill="#6CA1FF" cx="54.3307087" cy="11.8110236" r="1.18110236"></circle>
                    <circle id="Oval" fill="#6CA1FF" cx="56.6929134" cy="15.3543307" r="1.18110236"></circle>
                    <circle id="Oval" fill="#6CA1FF" cx="48.4251969" cy="11.8110236" r="1.18110236"></circle>
                    <circle id="Oval" fill="#6CA1FF" cx="50.7874016" cy="15.3543307" r="1.18110236"></circle>
                    <circle id="Oval" fill="#6CA1FF" cx="43.7007874" cy="11.8110236" r="1.18110236"></circle>
                    <circle id="Oval" fill="#6CA1FF" cx="46.0629921" cy="15.3543307" r="1.18110236"></circle>
                    <path d="M12.992126,31.8897638 C9.73622047,31.8897638 7.08661417,34.5393701 7.08661417,37.7952756 C7.08661417,41.0511811 9.73622047,43.7007874 12.992126,43.7007874 C16.2480315,43.7007874 18.8976378,41.0511811 18.8976378,37.7952756 C18.8976378,34.5393701 16.2480315,31.8897638 12.992126,31.8897638 Z M12.992126,41.0761155 C11.183727,41.0761155 9.71128609,39.6049869 9.71128609,37.7952756 C9.71128609,35.9855643 11.183727,34.5144357 12.992126,34.5144357 C14.8005249,34.5144357 16.2729659,35.9855643 16.2729659,37.7952756 C16.2729659,39.6049869 14.8005249,41.0761155 12.992126,41.0761155 Z" id="Shape" fill="#6CA1FF"></path>
                    <path d="M12.992126,56.6929134 C9.73622047,56.6929134 7.08661417,59.3425197 7.08661417,62.5984252 C7.08661417,65.8543307 9.73622047,68.503937 12.992126,68.503937 C16.2480315,68.503937 18.8976378,65.8543307 18.8976378,62.5984252 C18.8976378,59.3425197 16.2480315,56.6929134 12.992126,56.6929134 Z M12.992126,65.8792651 C11.183727,65.8792651 9.71128609,64.4081365 9.71128609,62.5984252 C9.71128609,60.7887139 11.183727,59.3175853 12.992126,59.3175853 C14.8005249,59.3175853 16.2729659,60.7887139 16.2729659,62.5984252 C16.2729659,64.4081365 14.8005249,65.8792651 12.992126,65.8792651 Z" id="Shape" fill="#6CA1FF"></path>
                    <path d="M76.7716535,21.0621256 L76.7716535,5.92083181 C76.7716535,2.65589395 74.1268701,0 70.8755906,0 L5.89606299,0 C2.64478346,0 0,2.65589395 0,5.92083181 L0,21.0608407 C0,22.9483629 0.899507874,24.6123119 2.27372047,25.6967698 C0.899507874,26.7825126 0,28.4477466 0,30.3339838 L0,45.4739927 C0,47.3615148 0.899507874,49.0254639 2.27372047,50.1099218 C0.899507874,51.1956646 0,52.8608985 0,54.7471358 L0,69.8871447 C0,73.1520825 2.64478346,75.8079765 5.89606299,75.8079765 L41.5628937,75.8079765 C44.9945866,76.4427184 48.7563976,76.7716535 52.4606299,76.7716535 C63.5566929,76.7716535 75.2566929,73.8819073 76.6373031,68.3516859 C76.7230315,68.1807939 76.7716535,67.9854886 76.7716535,67.7786193 L76.7716535,56.2144947 L76.7716535,55.7326562 L76.7716535,55.2508176 L76.7716535,44.6503701 L76.7716535,44.1685315 L76.7716535,43.686693 L76.7716535,32.6044069 L76.7716535,32.1225684 C76.7716535,31.929833 76.724311,31.7512315 76.6488189,31.5880488 C76.2048228,29.7069512 74.5401575,28.1226662 72.0911417,26.8531823 C74.7602362,26.28911 76.7716535,23.9081852 76.7716535,21.0621256 Z M2.55905512,45.4752776 L2.55905512,30.3339838 C2.55905512,28.4862936 4.05610236,26.9829574 5.89606299,26.9829574 L32.5870079,26.9829574 C30.2723425,28.230598 28.7010827,29.7699115 28.2724409,31.5880488 C28.1969488,31.7525164 28.1496063,31.929833 28.1496063,32.1225684 L28.1496063,32.6044069 L28.1496063,43.686693 L28.1496063,44.1685315 L28.1496063,44.6503701 L28.1496063,48.8263039 L5.89606299,48.8263039 C4.05610236,48.8263039 2.55905512,47.3229677 2.55905512,45.4752776 Z M31.5096457,37.5898295 C31.5672244,37.6270917 31.6286417,37.6643539 31.6875,37.7016161 C31.9126969,37.8429554 32.1468504,37.9817249 32.3912402,38.1179246 C32.4616142,38.1564716 32.5294291,38.1963036 32.5998031,38.2335658 C32.8979331,38.3941786 33.2075787,38.5509368 33.5300197,38.7012704 C33.5812008,38.7256835 33.6362205,38.7488118 33.6874016,38.77194 C33.9701772,38.9017152 34.2606299,39.0263508 34.5600394,39.1484165 C34.6483268,39.1843938 34.7353346,39.2203711 34.823622,39.2550635 C35.1767717,39.393833 35.5363189,39.5300327 35.9086614,39.6585229 C35.9291339,39.6649474 35.9496063,39.671372 35.9700787,39.6790814 C36.3257874,39.8011471 36.6917323,39.9180733 37.0640748,40.0311447 C37.163878,40.0619824 37.2649606,40.0915352 37.3660433,40.1210879 C37.7345472,40.2290197 38.1081693,40.3343818 38.490748,40.4346042 C38.5214567,40.4423136 38.5508858,40.4513079 38.5815945,40.4590173 C38.9936024,40.5656643 39.4145669,40.6646018 39.8419291,40.7609695 C39.9494094,40.7853826 40.0581693,40.8085109 40.1656496,40.8316391 C40.5315945,40.9113031 40.901378,40.9871124 41.275,41.0590669 C41.3492126,41.0732008 41.4234252,41.0886197 41.4976378,41.1027536 C41.9365157,41.1849874 42.3805118,41.2607966 42.829626,41.3327512 C42.9358268,41.3494549 43.0445866,41.3661587 43.1507874,41.3828624 C43.5231299,41.440683 43.8980315,41.4946489 44.2767717,41.5447601 C44.3804134,41.5588941 44.4827756,41.573028 44.5876969,41.585877 C45.0457677,41.6436977 45.5063976,41.6976636 45.9708661,41.7464899 C46.0642717,41.7567691 46.1589567,41.7644785 46.2523622,41.7734728 C46.6426181,41.8120199 47.0354331,41.8467123 47.428248,41.8788349 C47.5472441,41.8878292 47.6649606,41.8981084 47.7839567,41.9071027 C48.2535433,41.9417951 48.725689,41.9726328 49.1978346,41.9970459 C49.2643701,42.0009006 49.332185,42.0021855 49.4,42.0060402 C49.8158465,42.0265987 50.2329724,42.0420175 50.6500984,42.0535816 C50.7754921,42.0574363 50.9008858,42.061291 51.0275591,42.0638609 C51.5048228,42.0741401 51.9820866,42.0818495 52.4580709,42.0818495 C52.9340551,42.0818495 53.4113189,42.0741401 53.8885827,42.0638609 C54.0139764,42.061291 54.1393701,42.0574363 54.2660433,42.0535816 C54.6831693,42.0420175 55.0990157,42.0265987 55.5161417,42.0060402 C55.5839567,42.0021855 55.6504921,42.0009006 55.7183071,41.9970459 C56.1904528,41.9726328 56.6625984,41.9417951 57.132185,41.9071027 C57.2511811,41.8981084 57.3688976,41.8891141 57.4878937,41.8788349 C57.8819882,41.8479972 58.2735236,41.8120199 58.6637795,41.7734728 C58.757185,41.7644785 58.8518701,41.7554842 58.9452756,41.7464899 C59.4097441,41.6976636 59.870374,41.6449826 60.3284449,41.585877 C60.4320866,41.573028 60.5357283,41.5588941 60.6393701,41.5447601 C61.0168307,41.4946489 61.3930118,41.440683 61.7653543,41.3828624 C61.8728346,41.3661587 61.980315,41.3507398 62.0865157,41.3327512 C62.5356299,41.2607966 62.979626,41.1849874 63.4185039,41.1027536 C63.4939961,41.0886197 63.5669291,41.0732008 63.6411417,41.0590669 C64.0160433,40.9871124 64.3858268,40.9113031 64.7504921,40.8316391 C64.859252,40.807226 64.9667323,40.7840977 65.0742126,40.7609695 C65.5002953,40.6646018 65.9225394,40.5656643 66.3345472,40.4590173 C66.3652559,40.4513079 66.394685,40.4423136 66.4253937,40.4346042 C66.8079724,40.3356667 67.1815945,40.2303046 67.5500984,40.1210879 C67.6511811,40.0915352 67.7522638,40.0619824 67.8520669,40.0311447 C68.2244094,39.9180733 68.5903543,39.8011471 68.946063,39.6790814 C68.9665354,39.6726569 68.9870079,39.6662323 69.0074803,39.6585229 C69.3798228,39.5287478 69.7406496,39.393833 70.0925197,39.2550635 C70.1820866,39.2203711 70.2690945,39.1843938 70.3561024,39.1484165 C70.6555118,39.0263508 70.9459646,38.9017152 71.2287402,38.77194 C71.2812008,38.7475269 71.3349409,38.7256835 71.386122,38.7012704 C71.708563,38.5509368 72.0169291,38.3941786 72.3163386,38.2335658 C72.3879921,38.1950187 72.4558071,38.1564716 72.5249016,38.1179246 C72.7680118,37.9830098 73.0021654,37.8442403 73.2286417,37.7016161 C73.2875,37.6643539 73.3489173,37.6283766 73.4064961,37.5898295 C73.6713583,37.4176526 73.9221457,37.240336 74.1601378,37.0578798 C74.1754921,37.0463157 74.1934055,37.0360364 74.2087598,37.0244723 L74.2087598,43.4335672 C74.1780512,43.5826159 74.1575787,43.7342344 74.1818898,43.8871378 C74.1998031,43.9809357 74.2125984,44.0734487 74.2125984,44.1685315 C74.2125984,44.3098708 74.1729331,44.4537799 74.1383858,44.5964041 C74.1115157,44.7069058 74.0769685,44.8186923 74.0309055,44.929194 C73.9899606,45.0255617 73.9387795,45.1232143 73.8824803,45.219582 C73.8274606,45.3159497 73.7673228,45.4136023 73.6982283,45.50997 C73.5997047,45.6435999 73.4883858,45.7772298 73.3617126,45.9108596 C73.3143701,45.9622558 73.2670276,46.0136519 73.2158465,46.065048 C70.5070866,48.6965288 62.513878,51.0735988 52.4619094,51.0735988 C42.4163386,51.0735988 34.4269685,48.6990986 31.7130906,46.0689027 C31.6567913,46.012367 31.6056102,45.9571161 31.5544291,45.9005804 C31.4341535,45.7720901 31.3253937,45.6435999 31.2307087,45.5151096 C31.1577756,45.4136023 31.0937992,45.312095 31.0362205,45.2093027 C30.9837598,45.1180747 30.9351378,45.0268466 30.8954724,44.9343336 C30.8455709,44.8174074 30.8110236,44.7017662 30.782874,44.5861249 C30.7483268,44.4473554 30.7086614,44.307301 30.7086614,44.1685315 C30.7086614,44.0773034 30.7201772,43.9860753 30.7355315,43.8961322 C30.7624016,43.7290948 30.7457677,43.5620574 30.7086614,43.4014446 L30.7086614,37.0231874 C30.7240157,37.0347515 30.7419291,37.0450308 30.7572835,37.0565949 C30.9939961,37.2390511 31.2447835,37.4163677 31.5096457,37.5898295 Z M74.029626,56.4933186 C73.9886811,56.5896863 73.9375,56.6873389 73.8812008,56.7837066 C73.8261811,56.8800743 73.7660433,56.9777269 73.6969488,57.0740946 C73.5984252,57.2077245 73.4871063,57.3413544 73.3604331,57.4749843 C73.3130906,57.5263804 73.265748,57.5777765 73.2145669,57.6291726 C70.5058071,60.2606534 62.5125984,62.6377235 52.4606299,62.6377235 C42.4150591,62.6377235 34.425689,60.2632232 31.711811,57.6330273 C31.6555118,57.5764916 31.6043307,57.5212408 31.5531496,57.464705 C31.432874,57.3362148 31.3241142,57.2077245 31.2294291,57.0792342 C31.1564961,56.9777269 31.0925197,56.8762196 31.0349409,56.7734274 C30.9824803,56.6821993 30.9338583,56.5909712 30.8941929,56.4984582 C30.8442913,56.381532 30.8097441,56.2658908 30.7815945,56.1502495 C30.7521654,56.0294687 30.7214567,55.9074029 30.7176181,55.7866221 L30.7176181,55.6324337 C30.7227362,55.5746131 30.7252953,55.5167925 30.734252,55.4589719 C30.7521654,55.3484702 30.7278543,55.2405384 30.7163386,55.1313217 L30.7086614,48.8263039 L30.7086614,48.587312 C30.7598425,48.627144 30.8199803,48.6644062 30.8737205,48.7029533 C31.0349409,48.8237341 31.2038386,48.9419452 31.3765748,49.0588713 C31.5173228,49.1526692 31.663189,49.2451822 31.8116142,49.3376952 C32.0406496,49.4790345 32.2709646,49.6190889 32.5166339,49.7540037 C32.5191929,49.7552886 32.521752,49.7565735 32.5230315,49.7578584 C35.192126,51.2187928 38.861811,52.273698 42.9191929,52.9122946 C42.9499016,52.9174343 42.9806102,52.921289 43.0113189,52.9264286 C44.3202756,53.1307281 45.6637795,53.2900561 47.030315,53.4069822 C47.3207677,53.4313954 47.6099409,53.4570934 47.9029528,53.4776519 C48.1882874,53.4982103 48.473622,53.5161989 48.7602362,53.5316178 C49.1466535,53.5534611 49.5330709,53.5727347 49.9194882,53.5881535 C50.144685,53.5971478 50.3698819,53.607427 50.5963583,53.6138515 C51.2194882,53.6318402 51.8413386,53.6446892 52.4619094,53.6446892 C53.0812008,53.6446892 53.7030512,53.6331251 54.323622,53.6151364 C54.551378,53.6087119 54.7778543,53.5984327 55.0056102,53.5894384 C55.3894685,53.5740196 55.7720472,53.5560309 56.154626,53.5341876 C56.4437992,53.5174838 56.7316929,53.4994952 57.0195866,53.4789368 C57.3074803,53.4583783 57.5915354,53.4339652 57.8781496,53.409552 C59.2574803,53.2926259 60.6137795,53.1307281 61.934252,52.9251437 C61.9534449,52.9225739 61.9739173,52.9187192 61.9931102,52.9161494 C66.4266732,52.2197321 70.3919291,51.0234876 73.100689,49.3454047 C73.2478346,49.2541766 73.3937008,49.1629485 73.5331693,49.0691506 C73.7059055,48.9535093 73.8748031,48.8352983 74.0347441,48.7145174 C74.0923228,48.6721156 74.1575787,48.6322836 74.213878,48.5885969 L74.213878,54.9976918 C74.1831693,55.1467405 74.1626969,55.298359 74.1870079,55.4512625 C74.1998031,55.5450604 74.2125984,55.6375733 74.2125984,55.7326562 C74.2125984,55.8739955 74.1729331,56.0179046 74.1383858,56.1605288 C74.1102362,56.2710304 74.0769685,56.3828169 74.029626,56.4933186 Z M5.89606299,73.2394559 C4.05610236,73.2394559 2.55905512,71.7361197 2.55905512,69.8884296 L2.55905512,54.7471358 C2.55905512,52.8994456 4.05610236,51.3961094 5.89606299,51.3961094 L28.1496063,51.3961094 L28.1496063,55.2508176 L28.1496063,55.7326562 L28.1496063,56.2144947 L28.1496063,67.7786193 L28.1496063,69.063522 L28.5283465,69.063522 C28.5488189,69.1110634 28.578248,69.1573199 28.6012795,69.2048613 C28.646063,69.301229 28.6959646,69.3950269 28.7471457,69.4901097 C28.8520669,69.6802753 28.971063,69.8678711 29.1028543,70.0528971 C29.2333661,70.239208 29.3805118,70.4190944 29.5366142,70.5976959 C29.6159449,70.6876391 29.6952756,70.7762974 29.7810039,70.8649557 C30.271063,71.3724922 30.8596457,71.8479063 31.5390748,72.2924826 C31.5621063,72.3079014 31.5864173,72.3233203 31.6107283,72.3387391 C32.1020669,72.6561101 32.6330709,72.9567773 33.2075787,73.2407408 L5.89606299,73.2407408 L5.89606299,73.2394559 Z M74.2125984,67.4496842 C74.2023622,67.4895162 74.1934055,67.5306331 74.1870079,67.5704651 C73.6636811,70.7737276 64.8080709,74.203133 52.4606299,74.203133 C48.5209646,74.203133 44.9434055,73.8523545 41.8712598,73.2728634 L41.8725394,73.2625842 C35.5094488,72.0534907 31.988189,70.0117803 31.0029528,68.2900106 C31.0016732,68.2887257 31.0003937,68.2874408 31.0003937,68.284871 C30.9556102,68.205207 30.923622,68.1268279 30.8890748,68.0497338 C30.8225394,67.8891209 30.7598425,67.729793 30.734252,67.5704651 L30.7240157,60.1630008 C30.7700787,60.1989781 30.8250984,60.2323855 30.8724409,60.2683628 C31.0336614,60.3891437 31.2025591,60.5073547 31.3752953,60.6242809 C31.5160433,60.7180788 31.6619094,60.8105918 31.8103346,60.9031048 C32.0393701,61.0444441 32.269685,61.1844985 32.5153543,61.3194132 C32.5179134,61.3206981 32.5204724,61.3219831 32.521752,61.323268 C35.1908465,62.7842024 38.8605315,63.8391075 42.9179134,64.4777042 C42.948622,64.4828438 42.9793307,64.4866985 43.0100394,64.4918381 C44.3189961,64.6961376 45.6625,64.8554656 47.0290354,64.9723917 C47.3194882,64.9968049 47.6086614,65.0225029 47.9016732,65.0430614 C48.1870079,65.0636198 48.4723425,65.0816085 48.7589567,65.0970273 C49.145374,65.1188706 49.5317913,65.1381442 49.9182087,65.153563 C50.1434055,65.1625573 50.3686024,65.1728365 50.5950787,65.1792611 C51.2182087,65.1972497 51.8400591,65.2100987 52.4606299,65.2100987 C53.0799213,65.2100987 53.7017717,65.1985346 54.3223425,65.180546 C54.5500984,65.1741215 54.7765748,65.1638422 55.0043307,65.1548479 C55.388189,65.1394291 55.7707677,65.1214404 56.1533465,65.0995971 C56.4425197,65.0828934 56.7304134,65.0649047 57.0183071,65.0443463 C57.3062008,65.0237878 57.5902559,64.9993747 57.8768701,64.9749615 C59.2562008,64.8580354 60.6125,64.6961376 61.9329724,64.4905532 C61.9521654,64.4879834 61.9726378,64.4841287 61.9918307,64.4815589 C66.4253937,63.7851416 70.3906496,62.5888971 73.0994094,60.9108142 C73.2465551,60.8195861 73.3924213,60.728358 73.5318898,60.6345601 C73.704626,60.5189188 73.8735236,60.4007078 74.0334646,60.2799269 C74.0910433,60.2375251 74.1562992,60.1976932 74.2125984,60.1540065 L74.2125984,67.4496842 L74.2125984,67.4496842 Z M74.2125984,32.6044069 C74.2125984,35.8642052 64.9091535,39.5107591 52.4606299,39.5107591 C40.0108268,39.5107591 30.7086614,35.8642052 30.7086614,32.6044069 C30.7086614,32.4399394 30.7483268,32.272902 30.7956693,32.1058647 C30.8468504,31.9401122 30.9159449,31.770505 31.0183071,31.5957583 C31.0221457,31.5880488 31.0259843,31.5803394 31.0298228,31.57263 C31.4559055,30.8582241 32.3144685,30.0898523 33.6362205,29.3484634 C33.6925197,29.3176257 33.7500984,29.2867881 33.8076772,29.2559504 C34.0341535,29.1325997 34.2734252,29.010534 34.5254921,28.8897531 C34.8185039,28.7522685 35.1191929,28.6147839 35.4416339,28.4824389 C35.5043307,28.455456 35.5695866,28.4297579 35.6348425,28.4040599 C37.1216535,27.8091499 38.9129921,27.2810549 40.9295276,26.8493276 C41.5603346,26.7156977 42.2026575,26.5897772 42.8628937,26.4792756 C43.038189,26.4497228 43.2096457,26.4188851 43.3875,26.3906173 C49.1159449,25.5040344 55.7989173,25.5040344 61.5273622,26.3906173 C61.7077756,26.4188851 61.8817913,26.4510077 62.0596457,26.4805605 C62.7160433,26.5897772 63.3545276,26.7144128 63.9802165,26.8480427 C70.2179134,28.1817717 74.2125984,30.4727533 74.2125984,32.6044069 Z M74.2125984,21.0621256 C74.2125984,22.9098158 72.7155512,24.413152 70.8755906,24.413152 L64.951378,24.413152 C64.8771654,24.3964482 64.7952756,24.386169 64.721063,24.3694653 C63.8816929,24.1870091 63.0180118,24.0238264 62.1351378,23.8824871 C62.0494094,23.8696381 61.9636811,23.8555042 61.8779528,23.8426552 C58.8569882,23.3710959 55.6325787,23.1282492 52.4606299,23.1282492 C49.2886811,23.1282492 46.0668307,23.3710959 43.0458661,23.8426552 C42.9575787,23.8555042 42.8705709,23.8696381 42.7822835,23.8824871 C41.9019685,24.0238264 41.0408465,24.1870091 40.2040354,24.3681804 C40.1285433,24.3848841 40.0440945,24.3951633 39.9686024,24.4118671 L5.89606299,24.4118671 C4.05610236,24.413152 2.55905512,22.9098158 2.55905512,21.0621256 L2.55905512,5.92083181 C2.55905512,4.07314167 4.05610236,2.56980547 5.89606299,2.56980547 L70.874311,2.56980547 C72.7155512,2.56980547 74.2125984,4.07314167 74.2125984,5.92083181 L74.2125984,21.0621256 Z" id="Shape" fill="#406099"></path>
                </g>
            </g>
        </g>
    </g>
</svg>