<?xml version="1.0" encoding="UTF-8"?>
<svg width="151px" height="150px" viewBox="0 0 151 150" version="1.1" xmlns="http://www.w3.org/2000/svg" xmlns:xlink="http://www.w3.org/1999/xlink">
    <!-- Generator: Sketch 59.1 (86144) - https://sketch.com -->
    <title>QMoney</title>
    <desc>Created with Sketch.</desc>
    <g id="Page-1" stroke="none" stroke-width="1" fill="none" fill-rule="evenodd">
        <g id="v4" transform="translate(-656.000000, -2201.000000)">
            <g id="QMoney" transform="translate(656.500000, 2201.000000)">
                <circle id="Oval-Copy-10" fill="#0F1219" cx="75" cy="75" r="75"></circle>
                <g id="diagram" transform="translate(36.614173, 40.157480)" fill-rule="nonzero">
                    <rect id="Rectangle" fill="#406099" x="5.90551181" y="7.08661417" width="16.5354331" height="2.36220472"></rect>
                    <rect id="Rectangle" fill="#406099" x="5.90551181" y="11.8110236" width="16.5354331" height="2.36220472"></rect>
                    <rect id="Rectangle" fill="#406099" x="7.08661417" y="17.7165354" width="10.6299213" height="2.36220472"></rect>
                    <rect id="Rectangle" fill="#406099" x="7.08661417" y="22.4409449" width="10.6299213" height="2.36220472"></rect>
                    <rect id="Rectangle" fill="#000000" x="0" y="70.8661417" width="73.2283465" height="2.36220472"></rect>
                    <path d="M70.7369386,10.5517631 L65.8453099,0.683176248 C65.5437105,0.0734826193 64.8095076,-0.174157231 64.2050857,0.130072797 C64.20478,0.130226993 64.2044742,0.13038119 64.2041685,0.130535387 L54.4209111,5.06482879 C53.8164893,5.36936722 53.5711435,6.1105906 53.8730487,6.72028423 C54.1749539,7.32997786 54.9097683,7.57746352 55.5141901,7.27292509 L62.5997143,3.70173024 L60.6662981,9.27008035 C52.1681633,33.6837306 30.2798064,50.8112798 4.72440945,53.0446643 L4.93230367,55.511811 C31.4505871,53.1945435 54.162572,35.4192141 62.9763697,10.0842388 L64.9501419,4.39499846 L68.5479348,11.6545776 C68.84984,12.2642713 69.5846543,12.5117569 70.1890762,12.2072185 C70.7936509,11.9026801 71.0388438,11.1616109 70.7369386,10.5517631 Z" id="Path" fill="#6CA1FF"></path>
                    <path d="M15.3543307,57.8740157 L7.08661417,57.8740157 C6.43435039,57.8740157 5.90551181,58.4028543 5.90551181,59.0551181 L5.90551181,66.1417323 C5.90551181,66.7939961 6.43435039,67.3228346 7.08661417,67.3228346 L15.3543307,67.3228346 C16.0065945,67.3228346 16.5354331,66.7939961 16.5354331,66.1417323 L16.5354331,59.0551181 C16.5354331,58.4028543 16.0065945,57.8740157 15.3543307,57.8740157 Z M14.1732283,64.9606299 L8.26771654,64.9606299 L8.26771654,60.2362205 L14.1732283,60.2362205 L14.1732283,64.9606299 Z" id="Shape" fill="#406099"></path>
                    <path d="M28.3464567,54.3307087 L20.0787402,54.3307087 C19.4264764,54.3307087 18.8976378,54.8595472 18.8976378,55.511811 L18.8976378,66.1417323 C18.8976378,66.7939961 19.4264764,67.3228346 20.0787402,67.3228346 L28.3464567,67.3228346 C28.9987205,67.3228346 29.5275591,66.7939961 29.5275591,66.1417323 L29.5275591,55.511811 C29.5275591,54.8595472 28.9987205,54.3307087 28.3464567,54.3307087 Z M27.1653543,64.9606299 L21.2598425,64.9606299 L21.2598425,56.6929134 L27.1653543,56.6929134 L27.1653543,64.9606299 Z" id="Shape" fill="#406099"></path>
                    <path d="M41.3385827,48.4251969 L33.0708661,48.4251969 C32.4186024,48.4251969 31.8897638,48.9540354 31.8897638,49.6062992 L31.8897638,66.1417323 C31.8897638,66.7939961 32.4186024,67.3228346 33.0708661,67.3228346 L41.3385827,67.3228346 C41.9908465,67.3228346 42.519685,66.7939961 42.519685,66.1417323 L42.519685,49.6062992 C42.519685,48.9540354 41.9908465,48.4251969 41.3385827,48.4251969 Z M40.1574803,64.9606299 L34.2519685,64.9606299 L34.2519685,50.7874016 L40.1574803,50.7874016 L40.1574803,64.9606299 Z" id="Shape" fill="#406099"></path>
                    <path d="M54.3307087,40.1574803 L46.0629921,40.1574803 C45.4107283,40.1574803 44.8818898,40.7093119 44.8818898,41.389935 L44.8818898,67.2714824 C44.8818898,67.9521054 45.4107283,68.503937 46.0629921,68.503937 L54.3307087,68.503937 C54.9829724,68.503937 55.511811,67.9521054 55.511811,67.2714824 L55.511811,41.389935 C55.511811,40.7093119 54.9829724,40.1574803 54.3307087,40.1574803 Z M53.1496063,66.0390277 L47.2440945,66.0390277 L47.2440945,42.6223896 L53.1496063,42.6223896 L53.1496063,66.0390277 Z" id="Shape" fill="#406099"></path>
                    <path d="M68.503937,23.6220472 L60.2362205,23.6220472 C59.5839567,23.6220472 59.0551181,24.1651788 59.0551181,24.8350713 L59.0551181,67.290913 C59.0551181,67.9608055 59.5839567,68.503937 60.2362205,68.503937 L68.503937,68.503937 C69.1562008,68.503937 69.6850394,67.9608055 69.6850394,67.290913 L69.6850394,24.8350713 C69.6850394,24.1651788 69.1562008,23.6220472 68.503937,23.6220472 Z M67.3228346,66.0778889 L61.4173228,66.0778889 L61.4173228,26.0480953 L67.3228346,26.0480953 L67.3228346,66.0778889 Z" id="Shape" fill="#406099"></path>
                </g>
            </g>
        </g>
    </g>
</svg>